<svg width="234" height="150" viewBox="0 0 234 150" fill="none" xmlns="http://www.w3.org/2000/svg">
<rect width="234" height="150" fill="#1E1E1E"/>
<g id="Group 2">
<path id="Rectangle 1" d="M233.63 0.132568H0.100098V149.76H233.63V0.132568Z" fill="#010101"/>
<path id="Rectangle 2" d="M227.716 18.8995H7.54138V140.908H227.716V18.8995Z" fill="black"/>
<path id="Rectangle 3" d="M233.53 0H0V9.92543H233.53V0Z" fill="black"/>
<path id="Ellipse 3" d="M7.37301 6.91422C8.38863 6.91422 9.21196 6.09054 9.21196 5.07448C9.21196 4.05842 8.38863 3.23474 7.37301 3.23474C6.35738 3.23474 5.53406 4.05842 5.53406 5.07448C5.53406 6.09054 6.35738 6.91422 7.37301 6.91422Z" fill="#212121"/>
<path id="Ellipse 4" d="M14.3526 6.91422C15.3682 6.91422 16.1916 6.09054 16.1916 5.07448C16.1916 4.05842 15.3682 3.23474 14.3526 3.23474C13.337 3.23474 12.5137 4.05842 12.5137 5.07448C12.5137 6.09054 13.337 6.91422 14.3526 6.91422Z" fill="#212121"/>
<path id="Ellipse 5" d="M21.3322 6.91422C22.3479 6.91422 23.1712 6.09054 23.1712 5.07448C23.1712 4.05842 22.3479 3.23474 21.3322 3.23474C20.3166 3.23474 19.4933 4.05842 19.4933 5.07448C19.4933 6.09054 20.3166 6.91422 21.3322 6.91422Z" fill="#212121"/>
<g id="angleBrackets">
<path id="Path 37" d="M46.0616 36.0005L31.4978 50.3886L46.0616 64.7764L49.3385 61.4981L38.3258 50.4792L49.4305 39.3697L46.0616 36.0005Z" fill="#222121"/>
<path id="Path 38" d="M57.9947 36.0005L72.5581 50.3886L57.9947 64.7764L54.7178 61.4981L65.7312 50.4796L54.6257 39.3697L57.9947 36.0005Z" fill="#222121"/>
</g>
<path id="Path 65" d="M105.102 39.6112C103.911 39.6112 102.946 40.2966 102.946 41.1418C102.946 41.987 103.911 42.6724 105.102 42.6724H206.775C207.966 42.6724 208.932 41.987 208.932 41.1418C208.932 40.2966 207.966 39.6112 206.775 39.6112H105.102Z" fill="#222121"/>
<path id="Path 78" d="M205.764 123.471H34.7254C32.9769 123.471 31.56 122.461 31.5581 121.217V91.0158C31.56 89.7713 32.9769 88.7615 34.7254 88.7615H205.764C207.513 88.7615 208.93 89.7713 208.931 91.0158V121.216C208.93 122.461 207.513 123.469 205.764 123.471ZM34.7254 89.6624C33.6762 89.6624 32.8261 90.2684 32.8249 91.015V121.215C32.8249 121.962 33.6762 122.567 34.7254 122.568H205.764C206.813 122.568 207.663 121.962 207.665 121.215V91.0158C207.665 90.2692 206.813 89.664 205.764 89.6632L34.7254 89.6624Z" fill="#222121"/>
<path id="Ellipse 13" d="M52.3384 113.759C56.5646 113.759 59.9906 110.331 59.9906 106.103C59.9906 101.875 56.5646 98.4477 52.3384 98.4477C48.1123 98.4477 44.6863 101.875 44.6863 106.103C44.6863 110.331 48.1123 113.759 52.3384 113.759Z" fill="#222121"/>
<path id="uppercode" d="M73.9209 99.9807C73.5151 99.9801 73.1257 100.141 72.8384 100.428C72.5511 100.714 72.3894 101.103 72.3889 101.509C72.3884 101.915 72.5491 102.305 72.8356 102.592C73.1222 102.88 73.5111 103.041 73.9169 103.042H146.051C146.457 103.042 146.846 102.881 147.133 102.594C147.42 102.307 147.581 101.917 147.581 101.511C147.581 101.105 147.42 100.716 147.133 100.429C146.846 100.142 146.457 99.9807 146.051 99.9807H73.9209Z" fill="#222121"/>
<path id="lowercode" d="M73.9209 109.165C73.7199 109.165 73.5209 109.204 73.3352 109.281C73.1495 109.357 72.9807 109.47 72.8384 109.612C72.5511 109.898 72.3894 110.288 72.3889 110.693C72.3884 111.099 72.5491 111.489 72.8356 111.776C73.1222 112.064 73.5111 112.226 73.9169 112.226H104.958C105.364 112.227 105.753 112.066 106.041 111.779C106.328 111.493 106.49 111.103 106.49 110.697C106.491 110.291 106.33 109.902 106.043 109.615C105.757 109.327 105.368 109.165 104.962 109.165H73.9209Z" fill="#222121"/>
<path id="Path 81" d="M104.36 48.7812C103.975 48.8122 103.617 48.9869 103.355 49.2706C103.094 49.5542 102.948 49.9259 102.948 50.3119C102.948 50.6978 103.094 51.0695 103.355 51.3531C103.617 51.6368 103.975 51.8115 104.36 51.8425H170.994C171.378 51.8115 171.737 51.6368 171.999 51.3531C172.26 51.0695 172.405 50.6978 172.405 50.3119C172.405 49.9259 172.26 49.5542 171.999 49.2706C171.737 48.9869 171.378 48.8122 170.994 48.7812H104.36Z" fill="#222121"/>
<path id="Path 82" d="M104.798 57.9512C103.775 57.9512 102.946 58.6367 102.946 59.4819C102.946 60.327 103.775 61.0125 104.798 61.0125H192.144C193.167 61.0125 193.996 60.327 193.996 59.4819C193.996 58.6367 193.167 57.9512 192.144 57.9512H104.798Z" fill="#222121"/>
</g>
</svg>
